<svg xmlns="http://www.w3.org/2000/svg" width="805" height="600"><rect width="805" height="600" x="0" y="0" fill="#FFFFFF" id="background"/><g id="viz"><g transform="translate(0,0)"><g transform="translate(50,20)"><g class="bars"><rect id="undefined - South Asia" x="0" y="336.39928698752226" height="36.26856803327391" width="35.41615384615385" fill="#17becf"/><rect id="undefined - North Africa" x="0" y="448.1996434937611" height="36.26856803327391" width="8.596153846153847" fill="#8c564b"/><rect id="undefined - Latin America and the Caribbean" x="0" y="224.5989304812834" height="36.26856803327391" width="184.0723076923077" fill="#9467bd"/><rect id="undefined - Western Asia" x="0" y="373.66607248960185" height="36.26856803327391" width="27.393076923076922" fill="#cccccc"/><rect id="undefined - Australasia" x="0" y="261.865715983363" height="36.26856803327391" width="161.37846153846155" fill="#1f77b4"/><rect id="undefined - Western Europe" x="0" y="38.26500297088532" height="36.26856803327391" width="665.4569230769231" fill="#cccccc"/><rect id="undefined - Eastern Europe" x="0" y="0.9982174688057057" height="36.26856803327391" width="731.9338461538462" fill="#d62728"/><rect id="undefined - Northern America" x="0" y="75.53178847296493" height="36.26856803327391" width="629.8115384615385" fill="#e377c2"/><rect id="undefined - Sub-Saharan Africa" x="0" y="299.1325014854426" height="36.26856803327391" width="47.90923076923077" fill="#cccccc"/><rect id="undefined - East Asia" x="0" y="187.33214497920378" height="36.26856803327391" width="258.3430769230769" fill="#2ca02c"/><rect id="undefined - Southern Europe" x="0" y="150.06535947712416" height="36.26856803327391" width="292.72769230769234" fill="#cccccc"/><rect id="undefined - Northern Europe" x="0" y="112.79857397504455" height="36.26856803327391" width="509.1215384615384" fill="#7f7f7f"/><rect id="undefined - Southeast Asia" x="0" y="410.93285799168143" height="36.26856803327391" width="10.315384615384616" fill="#cccccc"/><rect id="undefined - Central Asia" x="0" y="485.4664289958407" height="36.26856803327391" width="8.596153846153847" fill="#ff7f0e"/><rect id="undefined - Polynesia" x="0" y="522.7332144979202" height="36.26856803327391" width="0.11461538461538462" fill="#bcbd22"/></g><g id="xAxis" transform="translate(0,560)" fill="none" font-size="10" font-family="sans-serif" text-anchor="middle"><path class="domain" stroke="currentColor" d="M0,6V0H745V6"/><g class="tick" opacity="1" transform="translate(0,0)"><line stroke="currentColor" y2="6"/><text fill="currentColor" y="9" dy="0.71em">0</text></g><g class="tick" opacity="1" transform="translate(57.307692307692314,0)"><line stroke="currentColor" y2="6"/><text fill="currentColor" y="9" dy="0.71em">500</text></g><g class="tick" opacity="1" transform="translate(114.61538461538463,0)"><line stroke="currentColor" y2="6"/><text fill="currentColor" y="9" dy="0.71em">1,000</text></g><g class="tick" opacity="1" transform="translate(171.92307692307693,0)"><line stroke="currentColor" y2="6"/><text fill="currentColor" y="9" dy="0.71em">1,500</text></g><g class="tick" opacity="1" transform="translate(229.23076923076925,0)"><line stroke="currentColor" y2="6"/><text fill="currentColor" y="9" dy="0.71em">2,000</text></g><g class="tick" opacity="1" transform="translate(286.53846153846155,0)"><line stroke="currentColor" y2="6"/><text fill="currentColor" y="9" dy="0.71em">2,500</text></g><g class="tick" opacity="1" transform="translate(343.84615384615387,0)"><line stroke="currentColor" y2="6"/><text fill="currentColor" y="9" dy="0.71em">3,000</text></g><g class="tick" opacity="1" transform="translate(401.15384615384613,0)"><line stroke="currentColor" y2="6"/><text fill="currentColor" y="9" dy="0.71em">3,500</text></g><g class="tick" opacity="1" transform="translate(458.4615384615385,0)"><line stroke="currentColor" y2="6"/><text fill="currentColor" y="9" dy="0.71em">4,000</text></g><g class="tick" opacity="1" transform="translate(515.7692307692307,0)"><line stroke="currentColor" y2="6"/><text fill="currentColor" y="9" dy="0.71em">4,500</text></g><g class="tick" opacity="1" transform="translate(573.0769230769231,0)"><line stroke="currentColor" y2="6"/><text fill="currentColor" y="9" dy="0.71em">5,000</text></g><g class="tick" opacity="1" transform="translate(630.3846153846154,0)"><line stroke="currentColor" y2="6"/><text fill="currentColor" y="9" dy="0.71em">5,500</text></g><g class="tick" opacity="1" transform="translate(687.6923076923077,0)"><line stroke="currentColor" y2="6"/><text fill="currentColor" y="9" dy="0.71em">6,000</text></g><g class="tick" opacity="1" transform="translate(745,0)"><line stroke="currentColor" y2="6"/><text fill="currentColor" y="9" dy="0.71em">6,500</text></g><text font-family="Arial, sans-serif" font-size="10" x="745" dy="-5" fill="black" font-weight="bold" text-anchor="end">Medals [sum]</text></g><g id="yAxis" transform="translate(0,0)" fill="none" font-size="10" font-family="sans-serif" text-anchor="end"><path class="domain" stroke="currentColor" d="M0,0V560"/><g class="tick" opacity="1" transform="translate(0,19.13250148544266)"><line stroke="currentColor" x2="-6"/><text fill="currentColor" x="-9" dy="0.32em">Eastern Europe</text></g><g class="tick" opacity="1" transform="translate(0,56.399286987522274)"><line stroke="currentColor" x2="-6"/><text fill="currentColor" x="-9" dy="0.32em">Western Europe</text></g><g class="tick" opacity="1" transform="translate(0,93.66607248960189)"><line stroke="currentColor" x2="-6"/><text fill="currentColor" x="-9" dy="0.32em">Northern America</text></g><g class="tick" opacity="1" transform="translate(0,130.9328579916815)"><line stroke="currentColor" x2="-6"/><text fill="currentColor" x="-9" dy="0.32em">Northern Europe</text></g><g class="tick" opacity="1" transform="translate(0,168.19964349376113)"><line stroke="currentColor" x2="-6"/><text fill="currentColor" x="-9" dy="0.32em">Southern Europe</text></g><g class="tick" opacity="1" transform="translate(0,205.46642899584072)"><line stroke="currentColor" x2="-6"/><text fill="currentColor" x="-9" dy="0.32em">East Asia</text></g><g class="tick" opacity="1" transform="translate(0,242.73321449792036)"><line stroke="currentColor" x2="-6"/><text fill="currentColor" x="-9" dy="0.32em">Latin America and the Caribbean</text></g><g class="tick" opacity="1" transform="translate(0,279.99999999999994)"><line stroke="currentColor" x2="-6"/><text fill="currentColor" x="-9" dy="0.32em">Australasia</text></g><g class="tick" opacity="1" transform="translate(0,317.2667855020796)"><line stroke="currentColor" x2="-6"/><text fill="currentColor" x="-9" dy="0.32em">Sub-Saharan Africa</text></g><g class="tick" opacity="1" transform="translate(0,354.5335710041592)"><line stroke="currentColor" x2="-6"/><text fill="currentColor" x="-9" dy="0.32em">South Asia</text></g><g class="tick" opacity="1" transform="translate(0,391.8003565062388)"><line stroke="currentColor" x2="-6"/><text fill="currentColor" x="-9" dy="0.32em">Western Asia</text></g><g class="tick" opacity="1" transform="translate(0,429.0671420083184)"><line stroke="currentColor" x2="-6"/><text fill="currentColor" x="-9" dy="0.32em">Southeast Asia</text></g><g class="tick" opacity="1" transform="translate(0,466.33392751039804)"><line stroke="currentColor" x2="-6"/><text fill="currentColor" x="-9" dy="0.32em">North Africa</text></g><g class="tick" opacity="1" transform="translate(0,503.6007130124777)"><line stroke="currentColor" x2="-6"/><text fill="currentColor" x="-9" dy="0.32em">Central Asia</text></g><g class="tick" opacity="1" transform="translate(0,540.8674985145572)"><line stroke="currentColor" x2="-6"/><text fill="currentColor" x="-9" dy="0.32em">Polynesia</text></g><text font-family="Arial, sans-serif" font-size="10" x="4" fill="black" font-weight="bold" text-anchor="start" dominant-baseline="hanging">Macroarea</text></g></g><text y="4" x="4" style="font-family: Arial, sans-serif; font-size: 12px; fill: black; font-weight: bold; dominant-baseline: hanging;"/></g></g></svg>